HIERARCHY
ROOT ui
{
	 OFFSET 0 0 0
	 CHANNELS 3 XPosition YPosition Z Position
	 EndSite
	 {
	 OFFSET 0 -1 0
	 }
}
ROOT li
{
	 OFFSET 0 0 0
	 CHANNELS 3 XPosition YPosition Z Position
	 EndSite
	 {
	 OFFSET 0 -1 0
	 }
}
ROOT ul
{
	 OFFSET 0 0 0
	 CHANNELS 3 XPosition YPosition Z Position
	 EndSite
	 {
	 OFFSET 0 -1 0
	 }
}
ROOT ll
{
	 OFFSET 0 0 0
	 CHANNELS 3 XPosition YPosition Z Position
	 EndSite
	 {
	 OFFSET 0 -1 0
	 }
}
ROOT tt
{
	 OFFSET 0 0 0
	 CHANNELS 3 XPosition YPosition Z Position
	 EndSite
	 {
	 OFFSET 0 -1 0
	 }
}
ROOT tb
{
	 OFFSET 0 0 0
	 CHANNELS 3 XPosition YPosition Z Position
	 EndSite
	 {
	 OFFSET 0 -1 0
	 }
}
ROOT td
{
	 OFFSET 0 0 0
	 CHANNELS 3 XPosition YPosition Z Position
	 EndSite
	 {
	 OFFSET 0 -1 0
	 }
}
ROOT v
{
	 OFFSET 0 0 0
	 CHANNELS 3 XPosition YPosition Z Position
	 EndSite
	 {
	 OFFSET 0 -1 0
	 }
}
ROOT bn
{
	 OFFSET 0 0 0
	 CHANNELS 3 XPosition YPosition Z Position
	 EndSite
	 {
	 OFFSET 0 -1 0
	 }
}
MOTION
Frames: 32
Frame Time: 0.002
-1.304799970239401E-5	-3.877429962158203E-4	0		0.5391780395507813	-2.363904296875	0		-1.12779638671875	-0.14511053466796875	0		-0.6707144165039063	-2.347648681640625	0		0.825870361328125	-0.694166259765625	0		2.317599609375	0.4623388671875	0		4.100515625	0.6993494873046875	0		5.5226572265625	0.147355712890625	0		-0.38781076049804686	5.8755888671875	0		
-7.112450003623962E-4	1.1903700232505798E-4	0		0.4888366394042969	-2.354755126953125	0		-1.1244322509765625	-0.1407747802734375	0		-0.6691311645507813	-2.345239013671875	0		0.885127685546875	-0.7042682495117187	0		2.330791015625	0.45793753051757813	0		4.10365869140625	0.6932611083984375	0		5.52508056640625	0.16128131103515625	0		-0.4222348022460938	5.86943896484375	0		
0.0026537110805511474	0.004545251846313477	0		0.5443904418945312	-2.355878173828125	0		-1.1210638427734374	-0.13746786499023436	0		-0.6675401000976563	-2.342860595703125	0		0.8415821533203125	-0.6982044067382812	0		2.329188720703125	0.4696687927246094	0		4.1139033203125	0.6940426635742187	0		5.5330380859375	0.13689689636230468	0		-0.4084362182617188	5.8786923828125	0		
-0.0020496559143066404	0.0010238679647445678	0		0.5119322509765625	-2.359022705078125	0		-1.1257412109375	-0.14010517883300783	0		-0.6720014038085937	-2.346451171875	0		0.870029296875	-0.6950180053710937	0		2.349412841796875	0.464100830078125	0		4.10610595703125	0.6889796752929688	0		5.54262060546875	0.1504352264404297	0		-0.24238967895507812	5.90516650390625	0		
0.007220048904418946	-0.007704737186431884	0		0.5375062255859375	-2.3618818359375	0		-1.1263543701171874	-0.13983364868164064	0		-0.67441552734375	-2.348111083984375	0		0.8694718627929687	-0.6945459594726563	0		2.35279541015625	0.46967578125	0		4.11640869140625	0.6896519165039062	0		5.53928857421875	0.143466796875	0		-0.3768517150878906	5.88503955078125	0		
-0.006302058219909668	-0.0012278079986572266	0		0.5091478576660157	-2.36118359375	0		-1.130976806640625	-0.1435683898925781	0		-0.6767994384765625	-2.34982421875	0		0.8798126831054688	-0.7062538452148438	0		2.327171142578125	0.4715177001953125	0		4.100818359375	0.696553466796875	0		5.54307470703125	0.12753378295898438	0		-0.39215310668945313	5.8734912109375	0		
0.006080687046051025	-0.007103631973266602	0		0.5368204956054687	-2.361178466796875	0		-1.1105474853515624	-0.14664041137695313	0		-0.743021484375	-2.33988232421875	0		0.810367919921875	-0.7021303100585937	0		2.34357568359375	0.471818115234375	0		4.115134765625	0.6910447387695312	0		5.55695556640625	0.12849806213378906	0		-0.46038946533203123	5.86247265625	0		
0.017600156784057616	-0.005032095909118652	0		0.5426110229492187	-2.3539921875	0		-1.108003662109375	-0.14357135009765626	0		-0.6713477172851563	-2.34354345703125	0		0.88496923828125	-0.6986832275390625	0		2.355073486328125	0.4761033020019531	0		4.11563525390625	0.6976137084960937	0		5.55531396484375	0.15915359497070314	0		-0.41027630615234373	5.87606884765625	0		
-0.004772891998291015	0.0023454320430755615	0		0.5362899780273438	-2.360743408203125	0		-1.118420166015625	-0.14142451477050783	0		-0.67765869140625	-2.349401611328125	0		0.87850244140625	-0.705404296875	0		2.34659130859375	0.4775331726074219	0		4.1260556640625	0.6919901733398437	0		5.565634765625	0.14608590698242188	0		-0.4283323364257812	5.8683544921875	0		
0.004729465007781982	-0.00670122480392456	0		0.5340700073242187	-2.36261376953125	0		-1.128784423828125	-0.13934828186035156	0		-0.6449144287109375	-2.354756591796875	0		0.8761310424804688	-0.7082454833984375	0		2.325098876953125	0.47302395629882815	0		4.1135986328125	0.6925336303710937	0		5.56666748046875	0.12100383758544922	0		-0.40928500366210935	5.86316259765625	0		
0.004385430812835694	-0.006713160037994385	0		0.5328980712890625	-2.3645712890625	0		-1.1162374267578126	-0.15059344482421874	0		-0.6800308837890625	-2.351443359375	0		0.8758446655273437	-0.708185791015625	0		2.34159521484375	0.4620194396972656	0		4.12519677734375	0.6927296142578125	0		5.56935986328125	0.1389779815673828	0		-0.44417453002929685	5.85748486328125	0		
-0.005806765079498291	0.0023059139251708984	0		0.5098741760253906	-2.357369873046875	0		-1.1124725341796875	-0.1468143310546875	0		-0.6781109619140625	-2.349607666015625	0		0.8776435546875	-0.7052254028320313	0		2.3373330078125	0.46816162109375	0		4.1128515625	0.69310107421875	0		5.57336328125	0.12216779327392578	0		-0.42983837890625	5.86619921875	0		
0.003861254930496216	-0.006965009212493897	0		0.5138676147460938	-2.353536865234375	0		-1.1096644287109374	-0.1440987548828125	0		-0.6761393432617188	-2.347846923828125	0		0.8715283203125	-0.6992567138671875	0		2.333007568359375	0.46322491455078124	0		4.13662451171875	0.6990054931640625	0		5.583263671875	0.13966693115234374	0		-0.39647512817382813	5.87163818359375	0		
0.003681318998336792	-0.0072046427726745604	0		0.5357971801757813	-2.36096875	0		-1.10983349609375	-0.1444260711669922	0		-0.678156005859375	-2.350118896484375	0		0.8753074340820313	-0.7084698486328125	0		2.340779541015625	0.4620840759277344	0		4.12825146484375	0.6861767578125	0		5.58957666015625	0.14328895568847655	0		-0.27899761962890623	5.8821171875	0		
-0.006348880767822265	0.0015862770080566407	0		0.5098907470703125	-2.357967529296875	0		-1.109947998046875	-0.14482768249511718	0		-0.6801171264648438	-2.352465087890625	0		0.875237548828125	-0.7087146606445313	0		2.332628173828125	0.4630390625	0		4.1241455078125	0.6932305908203125	0		5.58949365234375	0.14349147033691406	0		-0.41280145263671875	5.8621796875	0		
0.003485037088394165	-0.007903223037719726	0		0.53597314453125	-2.361583251953125	0		-1.110008056640625	-0.14530075073242188	0		-0.6800025024414063	-2.352904296875	0		0.8633478393554688	-0.6969061279296875	0		2.32453076171875	0.4639218139648438	0		4.13895556640625	0.6870156860351563	0		5.5907646484375	0.11758739471435548	0		-0.44838723754882814	5.857126953125	0		
0.003468101978302002	-0.008355715751647948	0		0.48622726440429687	-2.353476806640625	0		-1.1759278564453124	-0.13715853881835938	0		-0.7127913208007812	-2.3490693359375	0		0.8752604370117187	-0.709414306640625	0		2.328414306640625	0.457611328125	0		4.12081201171875	0.6800759887695312	0		5.58434130859375	0.11770985412597657	0		-0.44787713623046876	5.85562841796875	0		
0.0036997869014739992	0.010128104209899902	0		0.5424340209960937	-2.355529296875	0		-1.0978544921875	-0.13556712341308594	0		-0.6715327758789063	-2.346061767578125	0		0.8773825073242187	-0.7068820190429688	0		2.340454833984375	0.4611545104980469	0		4.14005078125	0.7046863403320313	0		5.60082958984375	0.12925595092773437	0		-0.3991476745605469	5.86957421875	0		
0.0035934479236602785	-0.009443122863769532	0		0.4867171020507812	-2.354489013671875	0		-1.1136939697265624	-0.1300616455078125	0		-0.6773243408203125	-2.352624755859375	0		0.8636176147460938	-0.6982445068359375	0		2.328579345703125	0.46788470458984377	0		4.1360234375	0.6984746704101562	0		5.5937890625	0.13436257934570311	0		-0.41658334350585935	5.86214453125	0		
-0.006176022052764893	-9.657610058784485E-4	0		0.5369505615234375	-2.3635810546875	0		-1.117575927734375	-0.1337291717529297	0		-0.6869260864257812	-2.345198974609375	0		0.8638088989257813	-0.6988026123046875	0		2.324631591796875	0.4624785461425781	0		4.12404833984375	0.6922866821289062	0		5.595212890625	0.10801719665527344	0		-0.430990478515625	5.85163134765625	0		
-0.0059897170066833495	-0.0016345460414886475	0		0.4853648986816406	-2.358687744140625	0		-1.1173798828125	-0.13448036193847657	0		-0.6786668090820313	-2.355998046875	0		0.8610169677734375	-0.7023765869140625	0		2.32872314453125	0.4559427185058594	0		4.12418359375	0.6919241333007813	0		5.60248583984375	0.10738813781738281	0		-0.5003350830078125	5.84162451171875	0		
-0.005756802082061767	-0.0023409500122070315	0		0.5137664794921875	-2.359637939453125	0		-1.1090679931640626	-0.12834706115722655	0		-0.7091926879882813	-2.3494443359375	0		0.8183524169921875	-0.6975919799804687	0		2.324983154296875	0.4614443359375	0		4.14036572265625	0.6913561401367188	0		5.6026591796875	0.10684999847412109	0		-0.47231573486328127	5.86160205078125	0		
0.004620996952056885	0.0068230051994323734	0		0.4922817687988281	-2.353120361328125	0		-1.10877978515625	-0.1291611328125	0		-0.6796608276367188	-2.341517822265625	0		0.8676880493164062	-0.6977557983398438	0		2.325229736328125	0.46087152099609374	0		4.1217255859375	0.704098388671875	0		5.61641015625	0.1041865234375	0		-0.43839071655273437	5.86649609375	0		
-0.0051512770652771	-0.0038367760181427	0		0.5406790161132813	-2.36331689453125	0		-1.1124840087890624	-0.13395684814453124	0		-0.6832127075195312	-2.346283935546875	0		0.8650327758789063	-0.70142529296875	0		2.32552392578125	0.46027273559570314	0		4.1330029296875	0.70351513671875	0		5.6166708984375	0.10871771240234375	0		-0.4044112854003906	5.8713720703125	0		
0.0022907860279083253	0.002319737911224365	0		0.48723553466796876	-2.36152734375	0		-1.11210107421875	-0.1348069305419922	0		-0.692600830078125	-2.339007568359375	0		0.8654542236328125	-0.7021409301757813	0		2.3338564453125	0.45857830810546873	0		4.13726025390625	0.69598291015625	0		5.6191474609375	0.12354253387451172	0		-0.4054267883300781	5.871580078125	0		
-0.004354262828826904	-0.005394855976104737	0		0.48781753540039063	-2.362277587890625	0		-1.1116693115234375	-0.1356649169921875	0		-0.7290186157226562	-2.339478515625	0		0.81994580078125	-0.7004196166992187	0		2.321306884765625	0.46407858276367187	0		4.125578125	0.689595703125	0		5.62368603515625	0.11061961364746094	0		-0.44043740844726564	5.867109375	0		
0.006214714050292969	0.003723947048187256	0		0.4904776611328125	-2.36004833984375	0		-1.107149169921875	-0.13256239318847657	0		-0.6675071411132812	-2.3528984375	0		0.8664442138671875	-0.703591552734375	0		2.309700927734375	0.45856600952148435	0		4.1270625	0.6950785522460937	0		5.6304423828125	0.10802229309082031	0		-0.44035842895507815	5.86629541015625	0		
0.010776545524597168	0.006907925128936767	0		0.49519747924804686	-2.35683203125	0		-1.1025877685546874	-0.13045277404785155	0		-0.7446693115234375	-2.336975830078125	0		0.8271031494140625	-0.6949295654296875	0		2.335288818359375	0.467702880859375	0		4.13159716796875	0.7005379028320312	0		5.6430634765625	0.13644123840332031	0		-0.4251411437988281	5.87434423828125	0		
0.00731346607208252	0.0021817870140075682	0		0.517862060546875	-2.364772705078125	0		-1.112984375	-0.1291868133544922	0		-0.6859412231445312	-2.33834130859375	0		0.8676373291015625	-0.7050189208984375	0		2.30589111328125	0.47337783813476564	0		4.13513525390625	0.701019287109375	0		5.6286513671875	0.17415773010253907	0		-0.42207095336914063	5.86152294921875	0		
0.004909580230712891	-0.0015354030132293701	0		0.49064413452148437	-2.365220458984375	0		-1.1183040771484376	-0.1249501724243164	0		-0.7221510620117187	-2.337783935546875	0		0.868308349609375	-0.7057076416015625	0		2.328332275390625	0.4565775451660156	0		4.1275908203125	0.6876226806640625	0		5.63043408203125	0.14924600219726564	0		-0.4558798828125	5.85606982421875	0		
0.005579535961151123	-0.0022568860054016115	0		0.49146902465820314	-2.36591015625	0		-1.111673095703125	-0.13080123901367188	0		-0.6843389892578124	-2.3398994140625	0		0.8690244750976562	-0.70637255859375	0		2.328972412109375	0.45600836181640625	0		4.11621630859375	0.6872838134765625	0		5.63091748046875	0.1486224365234375	0		-0.45658447265625	5.8563271484375	0		
0.004364162921905518	0.005069536209106445	0		0.4683797607421875	-2.361347412109375	0		-1.1849420166015625	-0.1298773651123047	0		-0.7524000854492188	-2.33199462890625	0		0.8268285522460938	-0.7016088256835937	0		2.32075537109375	0.4665502014160156	0		4.126001953125	0.69977392578125	0		5.6314296875	0.14804270935058594	0		-0.4421613464355469	5.86547509765625	0		
